<svg xmlns="http://www.w3.org/2000/svg" viewBox="0 0 512 512" width="512" height="512" role="img" aria-label="Stellar Drift #03">
  <title>Stellar Drift #03</title>
  <defs><linearGradient id="bg" x1="0" y1="0" x2="1" y2="1"><stop offset="0" stop-color="#04121f"/><stop offset="1" stop-color="#0f3b63"/></linearGradient></defs>
  <rect width="512" height="512" fill="url(#bg)"/>
  <rect x="0" y="97.45" width="512" height="49.36" fill="#7fd4f0" opacity="0.53"/>
  <rect x="0" y="163.9" width="512" height="16.89" fill="#2a7fb8" opacity="0.25"/>
  <rect x="0" y="195.27" width="512" height="33.09" fill="#7fd4f0" opacity="0.37"/>
  <rect x="0" y="243.61" width="512" height="13.97" fill="#2a7fb8" opacity="0.31"/>
  <rect x="0" y="274.74" width="512" height="29.46" fill="#7fd4f0" opacity="0.13"/>
  <rect x="0" y="315.28" width="512" height="32.74" fill="#2a7fb8" opacity="0.44"/>
  <rect x="0" y="364.82" width="512" height="14.77" fill="#2a7fb8" opacity="0.49"/>
  <rect x="0" y="391.3" width="512" height="15.8" fill="#7fd4f0" opacity="0.18"/>
  <rect x="0" y="419.69" width="512" height="42.55" fill="#2a7fb8" opacity="0.31"/>
  <rect x="0" y="470.65" width="512" height="46.65" fill="#7fd4f0" opacity="0.4"/>
  <circle cx="348.1" cy="387.6" r="8.36" fill="#e8fbff" opacity="0.37"/>
  <circle cx="3.98" cy="204.92" r="4.86" fill="#e8fbff" opacity="0.51"/>
  <circle cx="270.72" cy="47.19" r="11.92" fill="#e8fbff" opacity="0.34"/>
  <circle cx="419.55" cy="489.82" r="13.56" fill="#e8fbff" opacity="0.44"/>
  <circle cx="344.36" cy="173.06" r="6.56" fill="#e8fbff" opacity="0.18"/>
  <circle cx="436.84" cy="58.31" r="7.18" fill="#e8fbff" opacity="0.32"/>
  <circle cx="461.07" cy="187.99" r="8.37" fill="#e8fbff" opacity="0.37"/>
  <circle cx="72.3" cy="55.7" r="15.72" fill="#e8fbff" opacity="0.26"/>
  <circle cx="16.21" cy="164.58" r="2.58" fill="#e8fbff" opacity="0.4"/>
  <rect x="0" y="509" width="512" height="3" fill="#e8fbff" opacity="0.7"/>
</svg>
