<svg xmlns="http://www.w3.org/2000/svg" viewBox="0 0 512 512" width="512" height="512" role="img" aria-label="Soroban Signals #01">
  <title>Soroban Signals #01</title>
  <defs><linearGradient id="bg" x1="0" y1="0" x2="1" y2="1"><stop offset="0" stop-color="#150826"/><stop offset="1" stop-color="#3d1361"/></linearGradient></defs>
  <rect width="512" height="512" fill="url(#bg)"/>
  <circle cx="314.24" cy="279.76" r="207.02" fill="none" stroke="#c169f0" stroke-width="3.76" opacity="0.24"/>
  <circle cx="314.24" cy="279.76" r="113.51" fill="none" stroke="#7a2bb5" stroke-width="2.49" opacity="0.19"/>
  <circle cx="314.24" cy="279.76" r="249.82" fill="none" stroke="#c169f0" stroke-width="2" opacity="0.47"/>
  <circle cx="314.24" cy="279.76" r="233.26" fill="none" stroke="#7a2bb5" stroke-width="4.66" opacity="0.5"/>
  <circle cx="314.24" cy="279.76" r="154.54" fill="none" stroke="#c169f0" stroke-width="2.71" opacity="0.43"/>
  <circle cx="314.24" cy="279.76" r="174.01" fill="none" stroke="#7a2bb5" stroke-width="1.88" opacity="0.33"/>
  <circle cx="314.24" cy="279.76" r="141.86" fill="none" stroke="#c169f0" stroke-width="4.9" opacity="0.54"/>
  <circle cx="314.24" cy="279.76" r="65.95" fill="none" stroke="#7a2bb5" stroke-width="4.96" opacity="0.21"/>
  <circle cx="314.24" cy="279.76" r="72.54" fill="none" stroke="#c169f0" stroke-width="3.39" opacity="0.42"/>
  <circle cx="314.24" cy="279.76" r="71.68" fill="none" stroke="#7a2bb5" stroke-width="2.88" opacity="0.31"/>
  <circle cx="314.24" cy="279.76" r="20.7" fill="none" stroke="#c169f0" stroke-width="3.26" opacity="0.49"/>
  <circle cx="314.24" cy="279.76" r="18.87" fill="none" stroke="#7a2bb5" stroke-width="1.89" opacity="0.43"/>
  <rect x="302.7" y="104.6" width="54.28" height="1.37" fill="#f6e6ff" opacity="0.48"/>
  <rect x="217.59" y="168.8" width="67.26" height="1.9" fill="#f6e6ff" opacity="0.54"/>
  <rect x="167.65" y="229.63" width="47.67" height="1.75" fill="#f6e6ff" opacity="0.56"/>
  <rect x="239.15" y="198.74" width="85.93" height="2.65" fill="#f6e6ff" opacity="0.24"/>
  <rect x="48.53" y="159.98" width="61.16" height="3.54" fill="#f6e6ff" opacity="0.43"/>
  <rect x="0" y="509" width="512" height="3" fill="#f6e6ff" opacity="0.7"/>
</svg>
